HIERARCHY
ROOT Hips
{
	OFFSET 0.000000 0.000000 0.000000
	CHANNELS 6 Xposition Yposition Zposition Zrotation Yrotation Xrotation 
	JOINT LHipJoint
	{
		OFFSET 0.000000 0.000000 0.000000
		CHANNELS 3 Zrotation Yrotation Xrotation
		JOINT LeftUpLeg
		{
			OFFSET 1.363060 -1.794630 0.839290
			CHANNELS 3 Zrotation Yrotation Xrotation
			JOINT LeftLeg
			{
				OFFSET 2.448110 -6.726130 0.000000
				CHANNELS 3 Zrotation Yrotation Xrotation
				JOINT LeftFoot
				{
					OFFSET 2.562200 -7.039590 0.000000
					CHANNELS 3 Zrotation Yrotation Xrotation
					JOINT LeftToeBase
					{
						OFFSET 0.157640 -0.433110 2.322550
						CHANNELS 3 Zrotation Yrotation Xrotation
						End Site
						{
							OFFSET 0.000000 0.000000 0.000000
						}
					}
				}
			}
		}
	}
	JOINT RHipJoint
	{
		OFFSET 0.000000 0.000000 0.000000
		CHANNELS 3 Zrotation Yrotation Xrotation
		JOINT RightUpLeg
		{
			OFFSET -1.305520 -1.794630 0.839290
			CHANNELS 3 Zrotation Yrotation Xrotation
			JOINT RightLeg
			{
				OFFSET -2.542530 -6.985550 0.000000
				CHANNELS 3 Zrotation Yrotation Xrotation
				JOINT RightFoot
				{
					OFFSET -2.568260 -7.056230 0.000000
					CHANNELS 3 Zrotation Yrotation Xrotation
					JOINT RightToeBase
					{
						OFFSET -0.164730 -0.452590 2.363150
						CHANNELS 3 Zrotation Yrotation Xrotation
						End Site
						{
							OFFSET 0.000000 0.000000 0.000000
						}
					}
				}
			}
		}
	}
	JOINT LowerBack
	{
		OFFSET 0.000000 0.000000 0.000000
		CHANNELS 3 Zrotation Yrotation Xrotation
		JOINT Spine
		{
			OFFSET 0.028270 2.035590 -0.193380
			CHANNELS 3 Zrotation Yrotation Xrotation
			JOINT Spine1
			{
				OFFSET 0.056720 2.048850 -0.042750
				CHANNELS 3 Zrotation Yrotation Xrotation
				JOINT Neck
				{
					OFFSET 0.000000 0.000000 0.000000
					CHANNELS 3 Zrotation Yrotation Xrotation
					JOINT Neck1
					{
						OFFSET -0.054170 1.746240 0.172020
						CHANNELS 3 Zrotation Yrotation Xrotation
						JOINT Head
						{
							OFFSET 0.104070 1.761360 -0.123970
							CHANNELS 3 Zrotation Yrotation Xrotation
							End Site
							{
								OFFSET 0.000000 0.000000 0.000000
							}
						}
					}
				}
				JOINT LeftShoulder
				{
					OFFSET 0.000000 0.000000 0.000000
					CHANNELS 3 Zrotation Yrotation Xrotation
					JOINT LeftArm
					{
						OFFSET 3.362410 1.200890 -0.311210
						CHANNELS 3 Zrotation Yrotation Xrotation
						JOINT LeftForeArm
						{
							OFFSET 4.983000 -0.000000 -0.000000
							CHANNELS 3 Zrotation Yrotation Xrotation
							JOINT LeftHand
							{
								OFFSET 3.483560 -0.000000 -0.000000
								CHANNELS 3 Zrotation Yrotation Xrotation
								JOINT LeftFingerBase
								{
									OFFSET 0.000000 0.000000 0.000000
									CHANNELS 3 Zrotation Yrotation Xrotation
									JOINT LeftHandIndex1
									{
										OFFSET 0.715260 -0.000000 -0.000000
										CHANNELS 3 Zrotation Yrotation Xrotation
										End Site
										{
											OFFSET 0.000000 0.000000 0.000000
										}
									}
								}
								JOINT LThumb
								{
									OFFSET 0.000000 0.000000 0.000000
									CHANNELS 3 Zrotation Yrotation Xrotation
									End Site
									{
										OFFSET 0.000000 0.000000 0.000000
									}
								}
							}
						}
					}
				}
				JOINT RightShoulder
				{
					OFFSET 0.000000 0.000000 0.000000
					CHANNELS 3 Zrotation Yrotation Xrotation
					JOINT RightArm
					{
						OFFSET -3.136600 1.374050 -0.404650
						CHANNELS 3 Zrotation Yrotation Xrotation
						JOINT RightForeArm
						{
							OFFSET -5.241900 -0.000000 -0.000000
							CHANNELS 3 Zrotation Yrotation Xrotation
							JOINT RightHand
							{
								OFFSET -3.444170 -0.000000 -0.000000
								CHANNELS 3 Zrotation Yrotation Xrotation
								JOINT RightFingerBase
								{
									OFFSET 0.000000 0.000000 0.000000
									CHANNELS 3 Zrotation Yrotation Xrotation
									JOINT RightHandIndex1
									{
										OFFSET -0.622530 -0.000000 -0.000000
										CHANNELS 3 Zrotation Yrotation Xrotation
										End Site
										{
											OFFSET 0.000000 0.000000 0.000000
										}
									}
								}
								JOINT RThumb
								{
									OFFSET 0.000000 0.000000 0.000000
									CHANNELS 3 Zrotation Yrotation Xrotation
									End Site
									{
										OFFSET 0.000000 0.000000 0.000000
									}
								}
							}
						}
					}
				}
			}
		}
	}
}
MOTION
Frames: 4
Frame Time: 0.008333
0.467310 15.599394 -0.098431 14.379326 82.328668 53.366207 -10.405834 -1.808903 -2.570814 -12.998689 -1.151635 -69.939336 1.118076 5.894929 78.845002 3.565240 16.520021 -19.419468 -2.897300 0.000000 -15.970700 7.769240 1.626853 -1.904163 14.423622 2.329088 -63.826779 1.758060 -4.622221 61.567705 -3.462240 -5.233192 -33.989115 3.410200 0.000000 -5.988000 6.327376 0.778498 7.966925 0.841726 0.764263 -0.998243 -3.933264 0.689369 0.632125 6.445413 -8.496233 -6.994377 -1.611105 -0.098771 -0.352305 0.000000 0.000000 0.000000 2.635800 13.941844 2.738385 -73.721490 14.869925 24.336698 -1.157871 -61.927491 0.007759 -5.155994 6.575907 -0.294907 0.021547 0.054998 0.000000 0.000000 0.000000 0.000000 0.000000 0.000000 0.000000 4.316861 -3.172698 -0.469019 63.566161 9.707260 7.038645 0.132191 85.208195 -0.050032 -9.136638 3.531184 -0.318687 0.171626 -0.392680 0.000000 0.000000 0.000000 0.000000 0.000000 0.000000 0.000000 
0.603190 15.621501 -0.083896 14.168778 82.295311 53.316047 -10.161041 -1.900736 -2.391056 -13.081432 -1.691147 -71.703657 0.985979 5.880073 77.750588 3.670883 16.564484 -19.952275 -3.030999 -0.000000 -15.638600 7.808108 1.606112 -2.006112 14.383759 2.156772 -63.041760 1.825231 -4.554643 61.013831 -3.480618 -5.236907 -34.171212 3.446200 0.000000 -6.550900 5.927527 0.857936 7.939672 0.763651 0.857106 -1.002976 -3.894460 0.783354 0.655237 6.367127 -8.464878 -6.973741 -1.563016 -0.095476 -0.347086 0.000000 0.000000 0.000000 2.503661 14.210788 2.761972 -73.636576 15.450541 24.541365 -1.171329 -61.742045 0.007812 -5.356654 6.582472 -0.307031 0.024189 0.050744 0.000000 0.000000 0.000000 0.000000 0.000000 0.000000 0.000000 4.038010 -3.099819 -0.511319 63.138206 10.083127 7.153509 0.111098 85.916514 -0.050358 -9.096530 3.519370 -0.316690 0.172127 -0.396390 0.000000 0.000000 0.000000 0.000000 0.000000 0.000000 0.000000 
0.741265 15.642705 -0.070281 13.910349 82.283287 53.212496 -9.917780 -1.970337 -2.200709 -13.169865 -2.215086 -73.422687 0.839210 5.856414 76.513533 3.788054 16.636028 -20.454623 -3.159200 0.000000 -15.106900 7.845326 1.580679 -2.106723 14.357432 1.981822 -62.233163 1.894321 -4.483801 60.435701 -3.500776 -5.246609 -34.352571 3.484800 -0.000000 -7.053900 5.543061 0.930644 7.897657 0.688925 0.942518 -1.012367 -3.858455 0.869973 0.676282 6.297553 -8.442303 -6.965080 -1.515042 -0.092044 -0.344704 0.000000 0.000000 0.000000 2.367329 14.475984 2.787312 -73.540845 16.026341 24.716430 -1.185801 -61.554284 0.007822 -5.549725 6.588577 -0.318754 0.026618 0.046630 0.000000 0.000000 0.000000 0.000000 0.000000 0.000000 0.000000 3.764991 -3.035960 -0.550025 62.700378 10.420378 7.237601 0.089635 86.638231 -0.050758 -9.067547 3.500804 -0.314493 0.172803 -0.400054 0.000000 0.000000 0.000000 0.000000 0.000000 0.000000 0.000000 
0.881525 15.662842 -0.057321 13.646685 82.292597 53.090332 -9.677594 -2.015023 -2.003392 -13.282769 -2.718190 -75.075452 0.675471 5.822956 75.124891 3.912301 16.712036 -20.920743 -3.276800 -0.000000 -14.575000 7.882274 1.550475 -2.207352 14.339512 1.797757 -61.392026 1.964993 -4.409939 59.832810 -3.520983 -5.258790 -34.527742 3.523900 -0.000001 -7.615700 5.169362 0.994465 7.845507 0.616723 1.018672 -1.025622 -3.824858 0.947427 0.694281 6.237354 -8.424282 -6.965678 -1.466722 -0.088472 -0.344385 0.000000 0.000000 0.000000 2.230911 14.731728 2.814614 -73.437140 16.599342 24.860169 -1.201307 -61.363393 0.007776 -5.732451 6.602414 -0.330276 0.028788 0.042549 0.000000 0.000000 0.000000 0.000000 0.000000 0.000000 0.000000 3.495413 -2.978189 -0.585583 62.262232 10.717720 7.293914 0.068201 87.362102 -0.051232 -9.050722 3.483601 -0.312896 0.173617 -0.403756 0.000000 0.000000 0.000000 0.000000 0.000000 0.000000 0.000000 
